# xmcd
#
# Track frame offsets: 
#        150
#        28419
#        53077
#        74368
#        95957
#        127832
#        151802
#        173916
#        201946
#
# Disc length: 3043 seconds
#
# Revision: 2
# Processed by: cddbd v1.5.2PL0 Copyright (c) Steve Scherf et al.
# Submitted via: ExactAudioCopyFreeDBPlugin 1.0
#
DISCID=7d0be109
DTITLE=Orbital - Wonky (Deluxe)
DYEAR=2012
DGENRE=Electronic
TTITLE0=One Big Moment
TTITLE1=Straight Sun
TTITLE2=Never
TTITLE3=New France (feat. Zola Jesus)
TTITLE4=Distractions
TTITLE5=Stringy Acid
TTITLE6=Beelzedub
TTITLE7=Wonky (feat. Lady Leshurr)
TTITLE8=Where Is It Going?
EXTD=
EXTT0=
EXTT1=
EXTT2=
EXTT3=
EXTT4=
EXTT5=
EXTT6=
EXTT7=
EXTT8=
PLAYORDER=
